<svg width="207" height="30" viewBox="0 0 207 30" fill="none" xmlns="http://www.w3.org/2000/svg">
<path fill-rule="evenodd" clip-rule="evenodd" d="M37.4978 7.5311C38.0924 7.5311 38.6696 7.60298 39.2249 7.73478C39.2755 7.73544 39.3227 7.73611 39.3619 7.73611V6.5167H25.1853C24.8966 6.93471 24.6286 7.36802 24.3826 7.81532H35.4628C36.1092 7.63161 36.7916 7.5311 37.4978 7.5311ZM17.2679 22.1681C17.1775 22.1967 17.0538 22.218 16.9068 22.236C16.2936 22.3984 15.6492 22.4862 14.9848 22.4862C14.3431 22.4862 13.7199 22.4057 13.1247 22.2533C13.1074 22.2533 13.0868 22.2526 13.0715 22.2526L12.9099 23.4674H27.4178C27.7037 23.048 27.9711 22.616 28.2145 22.1681H17.2679ZM21.7893 18.2722H29.6694C29.7645 17.8462 29.841 17.4135 29.8981 16.9736H22.2748C22.1524 17.4255 21.9895 17.8602 21.7893 18.2722ZM22.9051 11.7106C22.8086 12.1379 22.7308 12.5706 22.6716 13.0099H30.303C30.428 12.5579 30.5943 12.124 30.7978 11.7106H22.9051ZM31.4332 1.32227C30.6145 1.68769 29.8337 2.12101 29.1002 2.62022H37.5256V1.32227H31.4332ZM27.4475 3.91953C27.0006 4.32556 26.5816 4.76087 26.1873 5.21815H37.5202V3.91953H27.4475ZM23.534 27.3632H15.0427V28.6618H21.2382C22.0443 28.2951 22.8124 27.8611 23.534 27.3632ZM23.7497 9.11398C23.5682 9.53664 23.4072 9.96996 23.2643 10.4126H31.6205C31.9982 9.92803 32.4345 9.49205 32.918 9.11398H23.7497ZM20.9874 19.5715C20.6163 20.054 20.1873 20.49 19.7118 20.8701H28.8421C29.0217 20.4468 29.1807 20.0134 29.3223 19.5715H20.9874ZM26.4181 24.7659C26.0264 25.2232 25.6087 25.6578 25.1658 26.0645H15.0439L14.5471 24.7659H26.4181Z" fill="#5AD3C0"/>
<path fill-rule="evenodd" clip-rule="evenodd" d="M37.4963 0C35.4945 0 33.5852 0.393379 31.8401 1.10625C35.0117 2.39955 37.642 4.74784 39.2932 7.71849C42.5633 8.52455 44.9893 11.4779 44.9893 15.0003C44.9893 19.1418 41.6349 22.5005 37.4963 22.5005C33.3578 22.5005 30.0026 19.1418 30.0026 15.0003H29.9734C29.9734 6.71607 23.2638 0 14.9874 0C6.71026 0 0 6.71607 0 15.0003C0 23.2846 6.71026 30 14.9874 30C16.9692 30 18.8599 29.6133 20.5923 28.9144C17.3862 27.6204 14.73 25.2522 13.0707 22.2529C9.86055 21.4042 7.49301 18.4802 7.49301 15.0003C7.49301 10.8582 10.8481 7.4995 14.9874 7.4995C19.1252 7.4995 22.4804 10.8582 22.4804 15.0003H22.5096C22.5096 23.2846 29.2199 30 37.4963 30C45.7727 30 52.483 23.2846 52.483 15.0003C52.483 6.71607 45.7727 0 37.4963 0Z" fill="#4CE1C6"/>
<path fill-rule="evenodd" clip-rule="evenodd" d="M78.4735 19.9228C78.4735 20.7357 78.3814 21.5873 78.197 22.4776C78.0127 23.368 77.6731 24.1857 77.1782 24.9309C76.6834 25.676 75.9945 26.2905 75.1115 26.7744C74.2286 27.2583 73.0885 27.5002 71.6913 27.5002C69.9448 27.5002 68.4894 27.0502 67.325 26.1502C66.1607 25.2502 65.3845 24.0938 64.9963 22.6809L69.3917 21.2002C69.5276 21.7422 69.775 22.1776 70.134 22.5067C70.493 22.8357 70.9345 23.0002 71.4584 23.0002C72.2734 23.0002 72.8119 22.7196 73.0739 22.1583C73.3359 21.597 73.4669 20.8615 73.4669 19.9518V6.39379H78.4735V19.9228ZM87.5262 7.87417C87.5262 8.24191 87.4534 8.58546 87.3079 8.90481C87.1623 9.22417 86.9683 9.49997 86.7257 9.73223C86.4831 9.96449 86.1921 10.1484 85.8525 10.2838C85.5129 10.4193 85.1587 10.4871 84.79 10.4871C84.0138 10.4871 83.3637 10.2306 82.8397 9.71771C82.3158 9.20481 82.0538 8.5903 82.0538 7.87417C82.0538 7.52578 82.1217 7.19191 82.2576 6.87256C82.3934 6.5532 82.5875 6.2774 82.8397 6.04514C83.092 5.81288 83.3831 5.62417 83.713 5.47901C84.0429 5.33385 84.4019 5.26127 84.79 5.26127C85.1587 5.26127 85.5129 5.32901 85.8525 5.46449C86.1921 5.59998 86.4831 5.78385 86.7257 6.01611C86.9683 6.24837 87.1623 6.52417 87.3079 6.84352C87.4534 7.16288 87.5262 7.50643 87.5262 7.87417ZM82.4054 26.9484V12.4903H87.1792V26.9484H82.4054ZM106.33 19.6613C106.33 20.842 106.117 21.9113 105.69 22.8694C105.263 23.8275 104.681 24.6404 103.944 25.3081C103.206 25.9759 102.352 26.4936 101.382 26.8613C100.412 27.2291 99.3736 27.413 98.2674 27.413C97.1807 27.413 96.1474 27.2291 95.1674 26.8613C94.1874 26.4936 93.3336 25.9759 92.6058 25.3081C91.8781 24.6404 91.3008 23.8275 90.8739 22.8694C90.447 21.9113 90.2335 20.842 90.2335 19.6613C90.2335 18.4807 90.447 17.4162 90.8739 16.4678C91.3008 15.5194 91.8781 14.7162 92.6058 14.0581C93.3336 13.4001 94.1874 12.8968 95.1674 12.5485C96.1474 12.2001 97.1807 12.0259 98.2674 12.0259C99.3736 12.0259 100.412 12.2001 101.382 12.5485C102.352 12.8968 103.206 13.4001 103.944 14.0581C104.681 14.7162 105.263 15.5194 105.69 16.4678C106.117 17.4162 106.33 18.4807 106.33 19.6613ZM101.73 19.6614C101.73 19.1969 101.653 18.7421 101.497 18.2969C101.342 17.8517 101.119 17.4598 100.828 17.1211C100.537 16.7824 100.178 16.5066 99.7509 16.2937C99.324 16.0808 98.8292 15.9743 98.2664 15.9743C97.7037 15.9743 97.2088 16.0808 96.7819 16.2937C96.355 16.5066 96.0008 16.7824 95.7194 17.1211C95.438 17.4598 95.2246 17.8517 95.079 18.2969C94.9335 18.7421 94.8607 19.1969 94.8607 19.6614C94.8607 20.1259 94.9335 20.5808 95.079 21.0259C95.2246 21.4711 95.4429 21.8727 95.734 22.2308C96.0251 22.5888 96.3841 22.8743 96.811 23.0872C97.2379 23.3001 97.7328 23.4066 98.2955 23.4066C98.8583 23.4066 99.3531 23.3001 99.7801 23.0872C100.207 22.8743 100.566 22.5888 100.857 22.2308C101.148 21.8727 101.366 21.4711 101.512 21.0259C101.658 20.5808 101.73 20.1259 101.73 19.6614ZM129.91 26.9484V18.3549H121.876V26.9484H116.899V6.39361H121.876V14.1742H129.91V6.39361H134.888V26.9484H129.91ZM148.857 18.0648C148.857 17.3099 148.619 16.6615 148.144 16.1196C147.668 15.5777 146.955 15.3067 146.004 15.3067C145.539 15.3067 145.112 15.3793 144.724 15.5244C144.335 15.6696 143.996 15.868 143.705 16.1196C143.414 16.3712 143.181 16.6664 143.006 17.0051C142.832 17.3438 142.734 17.697 142.715 18.0648H148.857ZM153.252 19.8937V20.4743C153.252 20.6679 153.242 20.8517 153.223 21.0259H142.715C142.754 21.4324 142.875 21.8001 143.079 22.1292C143.282 22.4582 143.544 22.7437 143.865 22.9856C144.185 23.2275 144.544 23.4162 144.942 23.5517C145.339 23.6872 145.752 23.755 146.179 23.755C146.936 23.755 147.576 23.6146 148.1 23.334C148.624 23.0533 149.051 22.6904 149.381 22.2453L152.699 24.3356C152.02 25.3227 151.122 26.0824 150.006 26.6146C148.891 27.1469 147.595 27.413 146.12 27.413C145.034 27.413 144.005 27.2437 143.035 26.905C142.065 26.5662 141.216 26.0727 140.488 25.4243C139.76 24.7759 139.188 23.9775 138.771 23.0292C138.353 22.0808 138.145 20.9969 138.145 19.7775C138.145 18.5969 138.349 17.5275 138.756 16.5695C139.164 15.6114 139.717 14.7985 140.415 14.1308C141.114 13.463 141.939 12.9453 142.889 12.5775C143.84 12.2098 144.869 12.0259 145.975 12.0259C147.042 12.0259 148.022 12.205 148.915 12.563C149.808 12.9211 150.574 13.4388 151.214 14.1163C151.855 14.7937 152.355 15.6162 152.714 16.584C153.073 17.5517 153.252 18.655 153.252 19.8937ZM164.78 20.6483H164.169C163.645 20.6483 163.116 20.6725 162.583 20.7209C162.049 20.7693 161.574 20.8612 161.156 20.9967C160.739 21.1322 160.395 21.3306 160.123 21.5919C159.851 21.8531 159.716 22.1967 159.716 22.6225C159.716 22.8935 159.779 23.1257 159.905 23.3193C160.031 23.5128 160.191 23.6677 160.385 23.7838C160.579 23.8999 160.802 23.9822 161.055 24.0306C161.307 24.079 161.549 24.1031 161.782 24.1031C162.753 24.1031 163.495 23.837 164.009 23.3048C164.523 22.7725 164.78 22.0515 164.78 21.1419V20.6483ZM156.02 14.4646C156.873 13.6517 157.868 13.042 159.003 12.6356C160.138 12.2291 161.298 12.0259 162.482 12.0259C163.704 12.0259 164.738 12.1759 165.582 12.4759C166.426 12.7759 167.11 13.2404 167.634 13.8694C168.158 14.4985 168.541 15.292 168.784 16.2501C169.026 17.2081 169.148 18.3452 169.148 19.6613V26.9484H164.781V25.4097H164.694C164.325 26.0097 163.767 26.4742 163.02 26.8033C162.273 27.1323 161.463 27.2968 160.59 27.2968C160.007 27.2968 159.406 27.2194 158.785 27.0646C158.164 26.9097 157.596 26.6581 157.082 26.3097C156.568 25.9613 156.146 25.4968 155.816 24.9162C155.486 24.3355 155.321 23.6194 155.321 22.7678C155.321 21.7226 155.607 20.8807 156.18 20.242C156.752 19.6033 157.49 19.1097 158.392 18.7613C159.294 18.413 160.299 18.1807 161.405 18.0646C162.511 17.9484 163.588 17.8904 164.636 17.8904V17.6581C164.636 16.942 164.383 16.4146 163.879 16.0759C163.374 15.7372 162.753 15.5678 162.016 15.5678C161.337 15.5678 160.682 15.713 160.051 16.0033C159.42 16.2936 158.882 16.642 158.436 17.0484L156.02 14.4646ZM172.757 26.9484V5H177.589V26.9484H172.757ZM186.557 16.0614V21.5776C186.557 22.255 186.688 22.763 186.95 23.1017C187.212 23.4405 187.682 23.6098 188.361 23.6098C188.594 23.6098 188.842 23.5905 189.104 23.5517C189.366 23.513 189.584 23.455 189.759 23.3776L189.817 26.8614C189.487 26.9776 189.07 27.0792 188.565 27.1663C188.061 27.2534 187.556 27.2969 187.051 27.2969C186.081 27.2969 185.266 27.1759 184.606 26.934C183.947 26.6921 183.418 26.3437 183.02 25.8888C182.622 25.434 182.336 24.8921 182.161 24.263C181.987 23.634 181.899 22.9324 181.899 22.1582V16.0614H179.571V12.4905H181.87V8.68725H186.557V12.4905H189.962V16.0614H186.557ZM201.748 26.9484V19.1097C201.748 18.7032 201.719 18.3161 201.661 17.9484C201.602 17.5806 201.491 17.2564 201.326 16.9758C201.161 16.6951 200.943 16.4726 200.671 16.3081C200.399 16.1435 200.05 16.0613 199.623 16.0613C198.789 16.0613 198.148 16.3564 197.702 16.9468C197.255 17.5371 197.032 18.2677 197.032 19.1387V26.9484H192.259V5H197.032V14.3193H197.091C197.42 13.7387 197.944 13.221 198.662 12.7661C199.38 12.3113 200.244 12.0839 201.253 12.0839C202.243 12.0839 203.072 12.2581 203.742 12.6064C204.411 12.9548 204.955 13.4048 205.372 13.9564C205.789 14.5081 206.09 15.1419 206.274 15.8581C206.459 16.5742 206.551 17.2903 206.551 18.0064V26.9484H201.748Z" fill="#4A4A4A"/>
</svg>
